<?xml version="1.0" encoding="UTF-8"?>
<svg id="Layer_1" xmlns="http://www.w3.org/2000/svg" viewBox="0 0 1080 1080">
  <defs>
    <style>
      .cls-1 {
        fill: #9d3e00;
      }
    </style>
  </defs>
  <g>
    <path class="cls-1" d="M290.97,500.98c-.06-5.36-3.19-10.2-8.04-12.46l-42.52-19.77c-2.7-1.26-5.62-1.89-8.52-1.89s-5.83.64-8.53,1.89l-42.4,19.74c-4.9,2.27-8.03,7.16-8.04,12.56-.03,16.55,1.14,51.9,11,68.71,6.83,11.61,14.98,20.54,22.61,27.21,2.36,2.06,6.05.36,6.05-2.78v-69.02c0-1.6-.65-3.05-1.69-4.09-1.04-1.04-2.48-1.69-4.09-1.69-3.18,0-5.76,2.59-5.76,5.78v36.77c0,3.93-5.18,5.34-7.18,1.96h0c-5.95-10.12-9.47-33.62-9.42-62.85,0-.9.53-1.73,1.37-2.12l42.4-19.74c1.16-.53,2.38-.81,3.67-.81s2.5.27,3.65.81l42.52,19.78c.84.39,1.37,1.2,1.37,2.12.45,39.22-5.62,57.28-8.25,63.23l-.06.14c-1.89,4.27-8.27,2.92-8.27-1.75v-37.54c0-1.6-.65-3.05-1.69-4.09-1.95-1.95-5.33-2.53-8.42,0-.89.73-1.42,1.83-1.42,2.99v71.22c0,3.06,3.51,4.76,5.93,2.88,9.44-7.3,19.15-17.12,24.49-29.2,8.62-19.51,9.4-52.34,9.23-68.01Z"/>
    <path class="cls-1" d="M237.74,505.26l-.04,91.23v11.87c0,1.45-.83,2.78-2.13,3.43-.8.4-1.5.73-2.05,1-1.03.49-2.22.49-3.25.01-.54-.25-1.21-.57-1.99-.96-1.29-.65-2.12-1.98-2.11-3.43v-11.09s.06-92.07.06-92.07c0-3.18,2.59-5.76,5.76-5.76,1.59,0,3.03.65,4.07,1.69,1.04,1.04,1.69,2.48,1.69,4.09Z"/>
  </g>
  <g>
    <path class="cls-1" d="M316.04,491.08h47.43v13.95h-16.04v83.7h-15.35v-83.7h-16.04v-13.95Z"/>
    <path class="cls-1" d="M414.53,588.73h-15.48l-2.65-17.72h-18.83l-2.65,17.72h-14.09l15.62-97.65h22.46l15.62,97.65ZM379.52,557.76h14.79l-7.25-49.38h-.28l-7.25,49.38Z"/>
    <path class="cls-1" d="M442.29,489.96c14.93,0,22.6,8.93,22.6,24.55v3.07h-14.51v-4.05c0-6.98-2.79-9.63-7.67-9.63s-7.67,2.65-7.67,9.63,3.07,12.42,13.11,21.2c12.83,11.3,16.88,19.39,16.88,30.55,0,15.62-7.81,24.55-22.88,24.55s-22.88-8.93-22.88-24.55v-6h14.51v6.98c0,6.98,3.07,9.49,7.95,9.49s7.95-2.51,7.95-9.49-3.07-12.42-13.11-21.2c-12.83-11.3-16.88-19.39-16.88-30.55,0-15.62,7.67-24.55,22.6-24.55Z"/>
    <path class="cls-1" d="M469.35,491.08h47.43v13.95h-16.04v83.7h-15.35v-83.7h-16.04v-13.95Z"/>
    <path class="cls-1" d="M538.82,532.23h21.07v13.95h-21.07v28.6h26.51v13.95h-41.85v-97.65h41.85v13.95h-26.51v27.2Z"/>
    <path class="cls-1" d="M628.8,560.41h.28l10.32-69.33h21.34v97.65h-14.51v-70.03h-.28l-10.32,70.03h-14.51l-11.16-69.05h-.28v69.05h-13.39v-97.65h21.34l11.16,69.33Z"/>
    <path class="cls-1" d="M670.64,514.52c0-15.62,8.23-24.55,23.3-24.55s23.3,8.93,23.3,24.55v50.78c0,15.62-8.23,24.55-23.3,24.55s-23.3-8.93-23.3-24.55v-50.78ZM685.99,566.27c0,6.98,3.07,9.63,7.95,9.63s7.95-2.65,7.95-9.63v-52.73c0-6.98-3.07-9.63-7.95-9.63s-7.95,2.65-7.95,9.63v52.73Z"/>
    <path class="cls-1" d="M747.79,489.96c14.93,0,22.6,8.93,22.6,24.55v3.07h-14.51v-4.05c0-6.98-2.79-9.63-7.67-9.63s-7.67,2.65-7.67,9.63,3.07,12.42,13.11,21.2c12.83,11.3,16.88,19.39,16.88,30.55,0,15.62-7.81,24.55-22.88,24.55s-22.88-8.93-22.88-24.55v-6h14.51v6.98c0,6.98,3.07,9.49,7.95,9.49s7.95-2.51,7.95-9.49-3.07-12.42-13.11-21.2c-12.83-11.3-16.88-19.39-16.88-30.55,0-15.62,7.67-24.55,22.6-24.55Z"/>
    <path class="cls-1" d="M828.97,588.73h-15.48l-2.65-17.72h-18.83l-2.65,17.72h-14.09l15.62-97.65h22.46l15.62,97.65ZM793.96,557.76h14.79l-7.25-49.38h-.28l-7.25,49.38Z"/>
    <path class="cls-1" d="M836.09,491.08h15.35v97.65h-15.35v-97.65Z"/>
    <path class="cls-1" d="M907.09,552.32v12.97c0,15.62-7.81,24.55-22.88,24.55s-22.88-8.93-22.88-24.55v-50.78c0-15.62,7.81-24.55,22.88-24.55s22.88,8.93,22.88,24.55v9.49h-14.51v-10.46c0-6.98-3.07-9.63-7.95-9.63s-7.95,2.65-7.95,9.63v52.73c0,6.98,3.07,9.49,7.95,9.49s7.95-2.51,7.95-9.49v-13.95h14.51Z"/>
  </g>
</svg>